<?xml version="1.0" encoding="utf-8"?>
    <!-- Generated by IcoMoon.io -->
    <!DOCTYPE svg PUBLIC "-//W3C//DTD SVG 1.1//EN" "http://www.w3.org/Graphics/SVG/1.1/DTD/svg11.dtd">
    <svg version="1.1" xmlns="http://www.w3.org/2000/svg" xmlns:xlink="http://www.w3.org/1999/xlink">
        <svg id="icon-apple" xmlns="http://www.w3.org/2000/svg" viewBox="0 0 156 181.5">
            <style>
                .apple-svg {
                    fill: #fff
                }
            </style>
            <path class="st0 apple-svg" d="M150.7 60.9c-9.4-11.7-22.5-18.4-34.9-18.4-16.4 0-23.3 7.8-34.7 7.8-11.7 0-20.6-7.8-34.8-7.8-13.9 0-28.7 8.5-38.1 22.9C-5 85.7-2.8 124 18.6 156.6c7.7 11.7 17.9 24.8 31.3 24.9 11.9.1 15.3-7.6 31.4-7.7 16.1-.1 19.2 7.8 31.1 7.6 13.4-.1 24.2-14.6 31.8-26.3 5.5-8.3 7.5-12.6 11.8-22-31-11.7-36-55.4-5.3-72.2zm-47.3-31.4c6-7.6 10.5-18.4 8.8-29.5-9.7.7-21.1 6.9-27.7 14.9-6 7.3-11 18.2-9.1 28.7 10.6.4 21.6-6 28-14.1z" />
        </svg>
        <svg id="icon-arrow-down" xmlns="http://www.w3.org/2000/svg" viewBox="0 0 18.01 30" class=" replaced-svg">
            <title>Skip to main content</title>
            <path d="M8.89 0a.8.8 0 0 0-.81.8v26.36l-6.7-6.65a.81.81 0 0 0-1.14 0 .79.79 0 0 0 0 1.13l8.2 8.12a.81.81 0 0 0 1.14 0l8.2-8.12a.79.79 0 0 0 0-1.13.81.81 0 0 0-1.14 0L9.7 27.38V.8a.8.8 0 0 0-.81-.8z" fill="#fff"></path>
        </svg>
        <svg id="icon-arrow-left-thick" version="1.1" xmlns="http://www.w3.org/2000/svg" xmlns:xlink="http://www.w3.org/1999/xlink" x="0px" y="0px" viewBox="-298 385.8 13 22.2" style="enable-background:new -298 385.8 13 22.2;" xml:space="preserve">
            <style type="text/css">
                .st0 {
                    opacity: 0.8;
                    fill: #FFFFFF;
                    stroke: #FFFFFF;
                    enable-background: new;
                }
            </style>
            <path class="st0" d="M-285.9,405.5l-1.5,1.6l-9.7-10.2l1.5-1.6l0,0l8.2-8.6l1.5,1.6l-8.2,8.6L-285.9,405.5z" />
        </svg>
        <svg id="icon-arrow-left" xmlns="http://www.w3.org/2000/svg" viewBox="0 0 15.94 26.09">
            <title>icon-arrow-left</title>
            <path d="M0.15,13.36L15,26a0.6,0.6,0,0,0,.74,0,0.4,0.4,0,0,0,0-.63L1.27,13,15.78,0.76a0.4,0.4,0,0,0,0-.63,0.6,0.6,0,0,0-.74,0L0.15,12.73A0.4,0.4,0,0,0,.15,13.36Z" fill="none" />
        </svg>
        <svg id="icon-arrow-right-fill" xmlns="http://www.w3.org/2000/svg" viewBox="-290 380 23.4 33">
            <title>icon-arrow-right-fill</title>
            <path d="M-290,380l23.4,16.5L-290,413V380z" />
        </svg>
        <svg id="icon-arrow-right-thick" xmlns="http://www.w3.org/2000/svg" viewBox="-298 385.8 13 22.2">
            <title>Icon Arrow Right Thick</title>
            <path d="M-295.6,407.1l-1.5-1.6l8.2-8.6l-8.2-8.6l1.5-1.6l9.7,10.2L-295.6,407.1z" />
        </svg>
        <svg id="icon-arrow-right-tiny" xmlns="http://www.w3.org/2000/svg" viewBox="0 0 7.95 9.92">
            <title>icon-arrow-right-tiny</title>
            <path d="M1.73 9.64A1 1 0 0 1 0 8.71v-7.5A1 1 0 0 1 1.73.29l5.5 3.55a1.24 1.24 0 0 1 0 2.24z" fill="#222021" />
        </svg>
        <svg id="icon-arrow-right" xmlns="http://www.w3.org/2000/svg" viewBox="0 0 15.94 26.09">
            <title>icon-arrow-right</title>
            <path d="M15.78,12.73L0.9,0.13a0.6,0.6,0,0,0-.74,0,0.4,0.4,0,0,0,0,.63L14.66,13,0.15,25.33a0.4,0.4,0,0,0,0,.63A0.6,0.6,0,0,0,.9,26l14.88-12.6A0.4,0.4,0,0,0,15.78,12.73Z" fill="none" />
        </svg>
        <svg id="icon-arrow-up-tiny" xmlns="http://www.w3.org/2000/svg" viewBox="0 0 9.93 7.95">
            <title>icon-arrow-up-tiny</title>
            <path d="M9.64 6.21a1 1 0 0 1-.93 1.73h-7.5a1 1 0 0 1-.93-1.73L3.84.71a1.24 1.24 0 0 1 2.24 0z" fill="#919195" />
        </svg>
        <svg id="icon-caret-down" xmlns="http://www.w3.org/2000/svg" viewBox="0 0 9.9 6.36">
            <path d="M0.71,0.71L4.95,4.95,9.19,0.71" fill="none" stroke="#a7a6a6" stroke-miterlimit="10" stroke-width="2" fill-rule="evenodd" />
        </svg>
        <svg id="icon-caret-up" xmlns="http://www.w3.org/2000/svg" viewBox="0 0 9.9 6.36">
            <path d="M9.19,5.66L4.95,1.41,0.71,5.66" fill="none" stroke="#a7a6a6" stroke-miterlimit="10" stroke-width="1.5" fill-rule="evenodd" />
        </svg>
        <svg id="icon-close-small" xmlns="http://www.w3.org/2000/svg" viewBox="0 0 10.49 10.49">
            <title>icon-close-small</title>
            <path d="M6.66,5.24l3.54-3.54A1,1,0,1,0,8.78.29L5.24,3.83,1.71,0.29A1,1,0,1,0,.29,1.71L3.83,5.24,0.29,8.78a1,1,0,0,0,1.41,1.41L5.24,6.66l3.54,3.54a1,1,0,0,0,1.41-1.41Z" fill="#fff" fill-rule="evenodd" />
        </svg>
        <svg id="icon-close" xmlns="http://www.w3.org/2000/svg" viewBox="0 0 12.02 12">
            <path d="M7,6l4.84-4.83a0.68,0.68,0,0,0-1-1L6,5,1.17,0.2a0.68,0.68,0,0,0-1,1L5,6,0.2,10.83a0.68,0.68,0,1,0,1,1L6,7l4.83,4.83a0.68,0.68,0,1,0,1-1Z" fill="#fff" stroke="#fff" stroke-width="1"/>
        </svg>
        <svg id="icon-download" xmlns="http://www.w3.org/2000/svg" viewBox="0 0 17.8 17.8">
            <path class="st0" d="M8.9,0C4,0,0,4,0,8.9c0,4.9,4,8.9,8.9,8.9s8.9-4,8.9-8.9C17.8,4,13.8,0,8.9,0 M8.9,1c4.4,0,7.9,3.6,7.9,7.9
	c0,4.4-3.6,7.9-7.9,7.9C4.5,16.8,1,13.3,1,8.9C1,4.5,4.5,1,8.9,1" />
            <path class="st1" d="M10.5,8.6c-0.1-0.1-0.4-0.1-0.5,0L9.1,9.4V5.9c0-0.2-0.2-0.4-0.4-0.4c-0.2,0-0.4,0.2-0.4,0.4v3.6L7.5,8.6
	C7.4,8.4,7.2,8.4,7,8.6C6.9,8.7,6.9,8.9,7,9.1l1.7,1.7l1.8-1.7C10.7,8.9,10.7,8.7,10.5,8.6" />
            <polygon class="st1" points="13,12.3 4.8,12.3 4.8,10.5 5.5,10.5 5.5,11.6 12.3,11.6 12.3,10.5 13,10.5 " />
        </svg>
        <svg id="icon-ellipses" xmlns="http://www.w3.org/2000/svg" viewBox="0 0 16 4">
            <title>icon-ellipses</title>
            <path d="M2 0a2 2 0 1 0 2 2 2 2 0 0 0-2-2zm6 0a2 2 0 1 0 2 2 2 2 0 0 0-2-2zm6 0a2 2 0 1 0 2 2 2 2 0 0 0-2-2z" fill="#222021" fill-rule="evenodd" opacity=".8" />
        </svg>
        <svg id="icon-hamburger" xmlns="http://www.w3.org/2000/svg" viewBox="0 0 20 13">
            <title>icon-hamburger</title>
            <path d="M0.83,1.86H19.17A0.89,0.89,0,0,0,20,.93,0.89,0.89,0,0,0,19.17,0H0.83A0.89,0.89,0,0,0,0,.93,0.89,0.89,0,0,0,.83,1.86ZM19.17,5.57H0.83A0.88,0.88,0,0,0,0,6.5a0.88,0.88,0,0,0,.83.93H19.17A0.88,0.88,0,0,0,20,6.5,0.88,0.88,0,0,0,19.17,5.57Zm0,5.57H0.83A0.93,0.93,0,0,0,.83,13H19.17A0.93,0.93,0,0,0,19.17,11.14Z" fill="none" />
        </svg>
        <svg id="icon-play-alt" xmlns="http://www.w3.org/2000/svg" viewBox="0 0 60 60">
            <title>icon-play-alt</title>
            <path d="M47.89 51.63a28 28 0 1 1 8.86-13.1" fill="none" stroke="#e21d38" stroke-linecap="round" stroke-miterlimit="10" stroke-width="4" />
            <path d="M21.81 17l21.68 13-21.68 13V17z" fill="#fff" fill-rule="evenodd" />
            <circle cx="52.55" cy="46.82" r="2.5" fill="#e21d38" />
        </svg>
        <svg id="icon-play" xmlns="http://www.w3.org/2000/svg" viewBox="0 0 29.03 33">
            <title>icon-play</title>
            <path d="M0 0l29 16.5L0 33V0z" fill="none" />
        </svg>
        <svg id="icon-plus" xmlns="http://www.w3.org/2000/svg" viewBox="-298 390 14 13">
            <title>icon-plus</title>
            <polygon points="-289.6,395.1 -289.6,390 -292.4,390 -292.4,395.1 -297.9,395.1 -297.9,397.9 -292.4,397.9 -292.4,403 
	-289.6,403 -289.6,397.9 -284.1,397.9 -284.1,395.1 " fill="#a7a6a6" fill-rule="evenodd" />
        </svg>
        <svg id="icon-search" xmlns="http://www.w3.org/2000/svg" viewBox="0 0 16.36 16.32">
            <path d="M11.1,9.17l0,0a6,6,0,1,0-2,2l0,0,5.26,5.12,2.08-2ZM6,9.72A3.72,3.72,0,1,1,9.72,6,3.72,3.72,0,0,1,6,9.72Z" fill="#fff" fill-rule="evenodd" />
        </svg>
        <svg id="icon-star" xmlns="http://www.w3.org/2000/svg" viewBox="-280 373 51 48">
            <path d="M-255,374l6,17h18l-14,11l5,17l-15-10l-15,10l5-17l-14-11h18L-255,374z" />
            <path d="M-255,374v35l-15,10l5-17l-14-11h18L-255,374z" />
        </svg>
        <svg id="icon-video-fullscreen" xmlns="http://www.w3.org/2000/svg" viewBox="0 0 20 16">
            <title>icon-video-fullscreen</title>
            <path d="M0 0v6h2V2h5V0H0zm18 0h-5v2h5v4h2V0h-2zm0 14h-5v2h7v-6h-2v4zM2 10H0v6h7v-2H2v-4z" fill="#fff" />
        </svg>
        <svg id="icon-video-pause" xmlns="http://www.w3.org/2000/svg" viewBox="0 0 29 33">
            <title>icon-video-pause</title>
            <path d="M0 33h10.88V.38H0V33zM18.13.38V33H29V.38H18.13z" fill="#fff" fill-rule="evenodd" />
        </svg>
        <svg id="icon-video-play" xmlns="http://www.w3.org/2000/svg" viewBox="0 0 29 33">
            <title>icon-video-play</title>
            <path d="M0 0l29 16.5L0 33V0z" fill="#fff" />
        </svg>
        <svg id="icon-logo" xmlns="http://www.w3.org/2000/svg" viewBox="0 0 40 40">
            <path d="M20,26a6,6,0,1,0-6-6h0A6,6,0,0,0,20,26ZM20,0a20,20,0,0,0-6,.92V12a10,10,0,1,1-4,8V2.67A20,20,0,1,0,20,0Z" fill="#e01f3d" />
        </svg>
        <svg id="icon-audio-adapter" xmlns="http://www.w3.org/2000/svg" viewBox="0 0 54 54">
            <path class="st0" d="M27 3c13.2 0 24 10.8 24 24S40.2 51 27 51 3 40.2 3 27 13.8 3 27 3m0-3C12.1 0 0 12.1 0 27s12.1 27 27 27 27-12.1 27-27S41.9 0 27 0z" />
            <path class="st1" d="M24.9 16.2s.1.1 0 0l-1.1 1c0 .3.3.6.6.6h5.2c.3 0 .6-.3.6-.6l-1.2-.9v-.1l1.1-3.9v-.2c0-.1-.1-.2-.2-.3L27.6 9h-1.1l-2.4 2.8c-.1.1-.2.1-.2.3v.2l1 3.9zM30 27.7v-3.5h-6v3.5h-3v11.4c0 3.3 2.7 6 6 6s6-2.7 6-6V27.7h-3zm1 11.4c0 2.2-1.8 4-4 4s-4-1.8-4-4v-9.4h8v9.4zM24 19.3h6v3.5h-6z" />
        </svg>
        <svg id="icon-inline-mic" xmlns="http://www.w3.org/2000/svg" viewBox="0 0 54 54">
            <path class="st0" d="M27 3c13.2 0 24 10.8 24 24S40.2 51 27 51 3 40.2 3 27 13.8 3 27 3m0-3C12.1 0 0 12.1 0 27s12.1 27 27 27 27-12.1 27-27S41.9 0 27 0z" />
            <path class="st1" d="M37.5 16.9h-21c-5.6 0-10.1 4.5-10.1 10.1s4.5 10.1 10.1 10.1h11L25 39.6c-.4.4-.4 1.2 0 1.6.4.4 1.2.4 1.6 0l6.3-6.3H16.5c-4.3 0-7.9-3.5-7.9-7.9s3.5-7.9 7.9-7.9h21c4.3 0 7.9 3.5 7.9 7.9 0 4.3-3.5 7.9-7.9 7.9H37l-2.2 2.2h2.8c5.6 0 10.1-4.5 10.1-10.1-.1-5.6-4.6-10.1-10.2-10.1z" />
            <path class="st1" d="M19.8 31.4c.6 0 1.2-.5 1.2-1.1v-1.9h1.9c.6 0 1.2-.5 1.2-1.1 0-.6-.5-1.2-1.2-1.2H21v-1.9c0-.6-.5-1.2-1.2-1.2-.6 0-1.2.5-1.2 1.2V26h-1.9c-.6 0-1.2.5-1.2 1.2 0 .6.5 1.1 1.2 1.1h1.9v1.9c.1.7.6 1.2 1.2 1.2zM38.4 27.2c0-.6-.5-1.2-1.2-1.2H31c-.6 0-1.2.5-1.2 1.2 0 .6.5 1.1 1.2 1.1h6.2c.7 0 1.2-.5 1.2-1.1z" />
        </svg>
        <svg id="icon-plus-white" xmlns="http://www.w3.org/2000/svg" viewBox="0 0 14 13">
        	<title>icon-plus</title>
        	<polygon points="14 5.5 8 5.5 8 0 6 0 6 5.5 0 5.5 0 7.5 6 7.5 6 13 8 13 8 7.5 14 7.5 14 5.5" fill="#fff" fill-rule="evenodd"/>
        </svg>
    </svg>